<?xml version="1.0" encoding="utf-8"?>
<!-- Generator: Adobe Illustrator 16.0.0, SVG Export Plug-In . SVG Version: 6.00 Build 0)  -->
<!DOCTYPE svg PUBLIC "-//W3C//DTD SVG 1.1//EN" "http://www.w3.org/Graphics/SVG/1.1/DTD/svg11.dtd">
<svg version="1.1" id="Layer_1" xmlns="http://www.w3.org/2000/svg" xmlns:xlink="http://www.w3.org/1999/xlink" x="0px" y="0px"
	 width="99.081px" height="60px" viewBox="0 0 99.081 60" enable-background="new 0 0 99.081 60" xml:space="preserve">
<polygon fill-rule="evenodd" clip-rule="evenodd" fill="#FBB231" points="69.48,59.696 71.013,59.656 72.525,59.546 74.009,59.356 
	75.48,59.097 76.913,58.765 78.326,58.364 79.708,57.894 81.062,57.363 82.382,56.762 83.666,56.111 84.907,55.389 86.12,54.617 
	87.281,53.786 88.402,52.905 89.485,51.973 90.517,50.982 91.509,49.95 92.439,48.868 93.321,47.746 94.153,46.584 94.925,45.372 
	95.646,44.129 96.297,42.848 96.897,41.525 97.43,40.173 97.899,38.791 98.301,37.378 98.631,35.945 98.892,34.473 99.081,32.991 
	99.191,31.479 99.231,29.945 99.191,28.423 99.081,26.92 98.892,25.437 98.631,23.985 98.301,22.553 97.899,21.149 97.43,19.768 
	96.897,18.425 96.297,17.113 95.646,15.831 94.925,14.598 94.153,13.386 93.321,12.224 92.439,11.113 91.509,10.03 90.517,8.999 
	89.485,8.018 88.402,7.085 87.281,6.205 86.12,5.373 84.907,4.602 83.666,3.89 82.382,3.239 81.062,2.638 79.708,2.107 
	78.326,1.637 76.913,1.236 75.48,0.905 74.009,0.644 72.525,0.454 71.013,0.344 69.48,0.304 67.957,0.344 66.445,0.454 
	64.963,0.644 63.5,0.905 62.067,1.236 60.655,1.637 59.283,2.107 57.93,2.638 56.618,3.239 55.346,3.89 54.104,4.602 52.902,5.373 
	51.739,6.205 50.618,7.085 49.546,8.018 48.515,8.999 47.532,10.03 46.601,11.113 45.719,12.224 44.898,13.386 44.126,14.598 
	43.415,15.831 42.755,17.113 42.163,18.425 41.632,19.768 41.172,21.149 40.771,22.553 40.44,23.985 40.18,25.437 39.99,26.92 
	39.879,28.423 39.839,29.945 39.879,31.479 39.99,32.991 40.18,34.473 40.44,35.945 40.771,37.378 41.172,38.791 41.632,40.173 
	42.163,41.525 42.755,42.848 43.415,44.129 44.126,45.372 44.898,46.584 45.719,47.746 46.601,48.868 47.532,49.95 48.515,50.982 
	49.546,51.973 50.618,52.905 51.739,53.786 52.902,54.617 54.104,55.389 55.346,56.111 56.618,56.762 57.93,57.363 59.283,57.894 
	60.655,58.364 62.067,58.765 63.5,59.097 64.963,59.356 66.445,59.546 67.957,59.656 69.48,59.696 69.48,59.696 "/>
<polygon fill-rule="evenodd" clip-rule="evenodd" fill="#EC1C2E" points="29.751,59.696 31.274,59.656 32.787,59.546 34.27,59.356 
	35.731,59.097 37.164,58.765 38.577,58.364 39.95,57.894 41.301,57.363 42.614,56.762 43.886,56.111 45.128,55.389 46.331,54.617 
	47.492,53.786 48.615,52.905 49.686,51.973 50.718,50.982 51.699,49.95 52.632,48.868 53.513,47.746 54.335,46.584 55.106,45.372 
	55.816,44.129 56.478,42.848 57.068,41.525 57.601,40.173 58.061,38.791 58.461,37.378 58.792,35.945 59.052,34.473 59.243,32.991 
	59.354,31.479 59.394,29.945 59.354,28.423 59.243,26.92 59.052,25.437 58.792,23.985 58.461,22.553 58.061,21.149 57.601,19.768 
	57.068,18.425 56.478,17.113 55.816,15.831 55.106,14.598 54.335,13.386 53.513,12.224 52.632,11.113 51.699,10.03 50.718,8.999 
	49.686,8.018 48.615,7.085 47.492,6.205 46.331,5.373 45.128,4.602 43.886,3.89 42.614,3.239 41.301,2.638 39.95,2.107 
	38.577,1.637 37.164,1.236 35.731,0.905 34.27,0.644 32.787,0.454 31.274,0.344 29.751,0.304 28.219,0.344 26.706,0.454 
	25.224,0.644 23.751,0.905 22.319,1.236 20.906,1.637 19.524,2.107 18.171,2.638 16.849,3.239 15.567,3.89 14.325,4.602 
	13.113,5.373 11.951,6.205 10.829,7.085 9.747,8.018 8.715,8.999 7.724,10.03 6.792,11.113 5.911,12.224 5.078,13.386 4.307,14.598 
	3.586,15.831 2.935,17.113 2.334,18.425 1.803,19.768 1.333,21.149 0.932,22.553 0.602,23.985 0.341,25.437 0.15,26.92 0.04,28.423 
	0,29.945 0.04,31.479 0.15,32.991 0.341,34.473 0.602,35.945 0.932,37.378 1.333,38.791 1.803,40.173 2.334,41.525 2.935,42.848 
	3.586,44.129 4.307,45.372 5.078,46.584 5.911,47.746 6.792,48.868 7.724,49.95 8.715,50.982 9.747,51.973 10.829,52.905 
	11.951,53.786 13.113,54.617 14.325,55.389 15.567,56.111 16.849,56.762 18.171,57.363 19.524,57.894 20.906,58.364 22.319,58.765 
	23.751,59.097 25.224,59.356 26.706,59.546 28.219,59.656 29.751,59.696 29.751,59.696 "/>
<polygon fill-rule="evenodd" clip-rule="evenodd" fill="#FBB231" points="46.141,11.694 61.918,11.694 61.918,10.081 47.502,10.081 
	46.141,11.694 46.141,11.694 "/>
<polygon fill-rule="evenodd" clip-rule="evenodd" fill="#FBB231" points="43.775,15.28 61.918,15.28 61.918,13.667 44.728,13.667 
	43.775,15.28 43.775,15.28 "/>
<polygon fill-rule="evenodd" clip-rule="evenodd" fill="#FBB231" points="42.013,18.856 61.918,18.856 61.918,17.243 42.714,17.243 
	42.013,18.856 42.013,18.856 "/>
<polygon fill-rule="evenodd" clip-rule="evenodd" fill="#FBB231" points="40.801,22.442 61.918,22.442 61.918,20.829 41.301,20.829 
	40.801,22.442 40.801,22.442 "/>
<polygon fill-rule="evenodd" clip-rule="evenodd" fill="#FBB231" points="41.502,39.772 61.968,39.772 61.968,38.159 41,38.159 
	41.502,39.772 41.502,39.772 "/>
<polygon fill-rule="evenodd" clip-rule="evenodd" fill="#FBB231" points="43.015,43.358 61.968,43.358 61.968,41.746 42.263,41.746 
	43.015,43.358 43.015,43.358 "/>
<polygon fill-rule="evenodd" clip-rule="evenodd" fill="#FBB231" points="45.139,46.935 61.968,46.935 61.968,45.322 44.126,45.322 
	45.139,46.935 45.139,46.935 "/>
<polygon fill-rule="evenodd" clip-rule="evenodd" fill="#FBB231" points="48.064,50.521 61.968,50.521 61.968,48.897 46.651,48.897 
	48.064,50.521 48.064,50.521 "/>
<polygon fill-rule="evenodd" clip-rule="evenodd" fill="#FBB231" points="40.089,26.018 61.918,26.018 61.918,24.406 40.399,24.406 
	40.089,26.018 40.089,26.018 "/>
<polygon fill-rule="evenodd" clip-rule="evenodd" fill="#FBB231" points="53.393,36.196 61.717,36.196 61.717,34.583 53.693,34.583 
	53.393,36.196 53.393,36.196 "/>
<polygon fill-rule="evenodd" clip-rule="evenodd" fill="#FBB231" points="54.054,32.62 61.717,32.62 61.717,30.997 54.354,30.997 
	54.054,32.62 54.054,32.62 "/>
<polygon fill-rule="evenodd" clip-rule="evenodd" fill="#FBB231" points="39.539,30.997 41.703,30.997 41.703,32.62 39.639,32.62 
	39.539,30.997 39.539,30.997 "/>
<polygon fill-rule="evenodd" clip-rule="evenodd" fill="#FFFFFF" points="35.501,29.043 35.36,29.034 35.221,29.014 35.09,28.994 
	34.96,28.974 34.84,28.954 34.71,28.934 34.58,28.914 34.44,28.894 34.3,28.874 34.139,28.863 33.959,28.854 33.768,28.843 
	33.558,28.843 33.328,28.854 33.067,28.874 32.777,28.894 32.576,28.923 32.386,28.954 32.216,29.014 32.065,29.074 31.926,29.144 
	31.795,29.224 31.694,29.325 31.604,29.414 31.544,29.524 31.495,29.635 31.475,29.754 31.475,29.875 31.504,30.006 31.544,30.135 
	31.625,30.266 31.725,30.396 31.926,30.586 32.167,30.736 32.446,30.867 32.747,30.977 33.067,31.077 33.398,31.188 33.729,31.307 
	34.049,31.438 34.35,31.607 34.63,31.817 34.88,32.069 35.09,32.379 35.251,32.76 35.351,33.212 35.391,33.752 35.351,34.383 
	35.281,34.854 35.161,35.265 35,35.645 34.8,35.976 34.57,36.266 34.31,36.516 34.029,36.737 33.719,36.927 33.398,37.077 
	33.067,37.208 32.727,37.308 32.376,37.389 32.035,37.448 31.705,37.478 31.375,37.499 31.064,37.509 30.633,37.509 30.232,37.499 
	29.881,37.499 29.551,37.488 29.251,37.478 28.98,37.458 28.74,37.438 28.51,37.408 28.3,37.389 28.108,37.349 27.918,37.318 
	27.748,37.268 27.578,37.228 27.418,37.168 27.257,37.107 27.086,37.047 27.538,34.833 27.628,34.854 27.738,34.884 27.878,34.924 
	28.048,34.964 28.229,35.004 28.43,35.045 28.649,35.094 28.89,35.134 29.141,35.174 29.401,35.214 29.671,35.244 29.952,35.274 
	30.242,35.284 30.533,35.295 30.823,35.295 31.114,35.284 31.404,35.225 31.635,35.145 31.815,35.034 31.955,34.895 32.055,34.754 
	32.136,34.593 32.185,34.433 32.227,34.282 32.247,33.992 32.156,33.742 31.986,33.542 31.735,33.371 31.435,33.221 31.084,33.07 
	30.693,32.93 30.303,32.771 29.902,32.591 29.521,32.379 29.171,32.118 28.851,31.809 28.599,31.428 28.419,30.977 28.329,30.436 
	28.339,29.794 28.389,29.403 28.459,29.034 28.559,28.693 28.68,28.373 28.84,28.072 29.021,27.811 29.231,27.561 29.481,27.341 
	29.772,27.151 30.092,26.99 30.452,26.84 30.854,26.729 31.305,26.639 31.795,26.57 32.335,26.529 32.927,26.52 33.297,26.52 
	33.638,26.529 33.949,26.54 34.229,26.55 34.48,26.57 34.71,26.589 34.911,26.61 35.09,26.63 35.262,26.65 35.402,26.679 
	35.532,26.699 35.652,26.72 35.751,26.739 35.843,26.75 35.933,26.77 36.012,26.78 35.501,29.043 35.501,29.043 "/>
<polyline fill="none" stroke="#FFFFFF" stroke-width="0.1146" stroke-miterlimit="2.6131" points="35.501,29.043 35.501,29.043 
	35.36,29.034 35.221,29.014 35.09,28.994 34.96,28.974 34.84,28.954 34.71,28.934 34.58,28.914 34.44,28.894 34.3,28.874 
	34.139,28.863 33.959,28.854 33.768,28.843 33.558,28.843 33.328,28.854 33.067,28.874 32.777,28.894 32.777,28.894 32.576,28.923 
	32.386,28.954 32.216,29.014 32.065,29.074 31.926,29.144 31.795,29.224 31.694,29.325 31.604,29.414 31.544,29.524 31.495,29.635 
	31.475,29.754 31.475,29.875 31.504,30.006 31.544,30.135 31.625,30.266 31.725,30.396 31.725,30.396 31.926,30.586 32.167,30.736 
	32.446,30.867 32.747,30.977 33.067,31.077 33.398,31.188 33.729,31.307 34.049,31.438 34.35,31.607 34.63,31.817 34.88,32.069 
	35.09,32.379 35.251,32.76 35.351,33.212 35.391,33.752 35.351,34.383 35.351,34.383 35.281,34.854 35.161,35.265 35,35.645 
	34.8,35.976 34.57,36.266 34.31,36.516 34.029,36.737 33.719,36.927 33.398,37.077 33.067,37.208 32.727,37.308 32.376,37.389 
	32.035,37.448 31.705,37.478 31.375,37.499 31.064,37.509 31.064,37.509 30.633,37.509 30.232,37.499 29.881,37.499 29.551,37.488 
	29.251,37.478 28.98,37.458 28.74,37.438 28.51,37.408 28.3,37.389 28.108,37.349 27.918,37.318 27.748,37.268 27.578,37.228 
	27.418,37.168 27.257,37.107 27.086,37.047 27.538,34.833 27.538,34.833 27.628,34.854 27.738,34.884 27.878,34.924 28.048,34.964 
	28.229,35.004 28.43,35.045 28.649,35.094 28.89,35.134 29.141,35.174 29.401,35.214 29.671,35.244 29.952,35.274 30.242,35.284 
	30.533,35.295 30.823,35.295 31.114,35.284 31.114,35.284 31.404,35.225 31.635,35.145 31.815,35.034 31.955,34.895 32.055,34.754 
	32.136,34.593 32.185,34.433 32.227,34.282 32.227,34.282 32.247,33.992 32.156,33.742 31.986,33.542 31.735,33.371 31.435,33.221 
	31.084,33.07 30.693,32.93 30.303,32.771 29.902,32.591 29.521,32.379 29.171,32.118 28.851,31.809 28.599,31.428 28.419,30.977 
	28.329,30.436 28.339,29.794 28.339,29.794 28.389,29.403 28.459,29.034 28.559,28.693 28.68,28.373 28.84,28.072 29.021,27.811 
	29.231,27.561 29.481,27.341 29.772,27.151 30.092,26.99 30.452,26.84 30.854,26.729 31.305,26.639 31.795,26.57 32.335,26.529 
	32.927,26.52 32.927,26.52 33.297,26.52 33.638,26.529 33.949,26.54 34.229,26.55 34.48,26.57 34.71,26.589 34.911,26.61 
	35.09,26.63 35.262,26.65 35.402,26.679 35.532,26.699 35.652,26.72 35.751,26.739 35.843,26.75 35.933,26.77 36.012,26.78 
	35.501,29.043 "/>
<polygon fill-rule="evenodd" clip-rule="evenodd" fill="#FFFFFF" points="37.876,24.306 40.651,24.306 40.24,26.729 41.913,26.729 
	41.551,28.994 39.789,28.943 38.827,34.532 38.817,34.733 38.868,34.903 38.968,35.034 39.097,35.145 39.278,35.214 39.479,35.274 
	39.698,35.314 39.939,35.335 40.16,35.324 40.359,35.305 40.54,35.274 40.7,35.233 40.83,35.193 40.921,35.164 40.98,35.145 
	41,35.134 40.651,36.997 40.58,37.047 40.51,37.088 40.44,37.128 40.37,37.168 40.299,37.198 40.22,37.228 40.129,37.258 
	40.039,37.287 39.939,37.318 39.839,37.338 39.719,37.358 39.599,37.378 39.468,37.397 39.318,37.418 39.158,37.438 38.988,37.458 
	38.227,37.458 37.825,37.429 37.476,37.389 37.154,37.327 36.884,37.258 36.653,37.168 36.463,37.068 36.293,36.947 36.163,36.816 
	36.063,36.677 35.992,36.507 35.942,36.336 35.913,36.146 35.902,35.936 35.902,35.715 35.933,35.485 35.962,35.233 37.876,24.306 
	37.876,24.306 "/>
<polyline fill="none" stroke="#FFFFFF" stroke-width="0.1146" stroke-miterlimit="2.6131" points="37.876,24.306 40.651,24.306 
	40.24,26.729 41.913,26.729 41.551,28.994 39.789,28.943 38.827,34.532 38.827,34.532 38.817,34.733 38.868,34.903 38.968,35.034 
	39.097,35.145 39.278,35.214 39.479,35.274 39.698,35.314 39.939,35.335 39.939,35.335 40.16,35.324 40.359,35.305 40.54,35.274 
	40.7,35.233 40.83,35.193 40.921,35.164 40.98,35.145 41,35.134 40.651,36.997 40.651,36.997 40.58,37.047 40.51,37.088 
	40.44,37.128 40.37,37.168 40.299,37.198 40.22,37.228 40.129,37.258 40.039,37.287 39.939,37.318 39.839,37.338 39.719,37.358 
	39.599,37.378 39.468,37.397 39.318,37.418 39.158,37.438 38.988,37.458 38.227,37.458 38.227,37.458 37.825,37.429 37.476,37.389 
	37.154,37.327 36.884,37.258 36.653,37.168 36.463,37.068 36.293,36.947 36.163,36.816 36.063,36.677 35.992,36.507 35.942,36.336 
	35.913,36.146 35.902,35.936 35.902,35.715 35.933,35.485 35.962,35.233 37.876,24.306 "/>
<polygon fill-rule="evenodd" clip-rule="evenodd" fill="#FFFFFF" points="44.126,32.771 44.096,32.94 44.086,33.12 44.106,33.312 
	44.146,33.502 44.217,33.692 44.297,33.872 44.407,34.062 44.527,34.232 44.668,34.402 44.818,34.553 44.978,34.703 45.159,34.824 
	45.338,34.935 45.539,35.023 45.739,35.094 45.939,35.134 46.2,35.174 46.45,35.204 46.711,35.233 46.972,35.255 47.231,35.265 
	47.502,35.265 47.763,35.255 48.033,35.233 48.305,35.193 48.575,35.145 48.854,35.085 49.125,34.994 49.405,34.884 49.696,34.764 
	49.977,34.604 50.267,34.433 49.866,36.896 49.707,36.978 49.546,37.058 49.386,37.117 49.236,37.177 49.085,37.228 48.925,37.278 
	48.765,37.318 48.595,37.349 48.414,37.378 48.214,37.397 48.004,37.418 47.772,37.438 47.513,37.448 47.242,37.448 46.932,37.458 
	46.601,37.458 46.11,37.448 45.61,37.397 45.108,37.327 44.607,37.208 44.117,37.058 43.645,36.867 43.195,36.617 42.774,36.326 
	42.384,35.985 42.043,35.575 41.753,35.114 41.511,34.583 41.341,33.992 41.232,33.321 41.201,32.58 41.252,31.758 41.292,31.438 
	41.352,31.067 41.432,30.676 41.542,30.256 41.692,29.825 41.873,29.394 42.103,28.954 42.384,28.533 42.703,28.132 43.094,27.751 
	43.536,27.411 44.036,27.11 44.617,26.86 45.269,26.679 45.99,26.56 46.8,26.52 47.191,26.529 47.603,26.57 48.013,26.639 
	48.424,26.739 48.825,26.889 49.216,27.07 49.576,27.311 49.906,27.592 50.207,27.932 50.457,28.333 50.658,28.793 50.797,29.325 
	50.878,29.925 50.888,30.606 50.819,31.368 50.667,32.209 50.618,32.819 43.315,32.819 43.775,30.847 48.164,30.847 48.184,30.597 
	48.173,30.356 48.153,30.135 48.113,29.936 48.043,29.745 47.974,29.575 47.874,29.425 47.772,29.284 47.653,29.164 47.522,29.064 
	47.372,28.974 47.222,28.894 47.062,28.833 46.901,28.793 46.731,28.764 46.55,28.744 46.361,28.753 46.18,28.783 46.009,28.823 
	45.84,28.883 45.669,28.963 45.519,29.054 45.369,29.164 45.239,29.284 45.108,29.425 44.988,29.575 44.878,29.734 44.788,29.905 
	44.697,30.086 44.628,30.287 44.567,30.486 44.527,30.696 44.126,32.771 44.126,32.771 "/>
<polyline fill="none" stroke="#FFFFFF" stroke-width="0.1146" stroke-miterlimit="2.6131" points="44.126,32.771 44.126,32.771 
	44.096,32.94 44.086,33.12 44.106,33.312 44.146,33.502 44.217,33.692 44.297,33.872 44.407,34.062 44.527,34.232 44.668,34.402 
	44.818,34.553 44.978,34.703 45.159,34.824 45.338,34.935 45.539,35.023 45.739,35.094 45.939,35.134 45.939,35.134 46.2,35.174 
	46.45,35.204 46.711,35.233 46.972,35.255 47.231,35.265 47.502,35.265 47.763,35.255 48.033,35.233 48.305,35.193 48.575,35.145 
	48.854,35.085 49.125,34.994 49.405,34.884 49.696,34.764 49.977,34.604 50.267,34.433 49.866,36.896 49.866,36.896 49.707,36.978 
	49.546,37.058 49.386,37.117 49.236,37.177 49.085,37.228 48.925,37.278 48.765,37.318 48.595,37.349 48.414,37.378 48.214,37.397 
	48.004,37.418 47.772,37.438 47.513,37.448 47.242,37.448 46.932,37.458 46.601,37.458 46.601,37.458 46.11,37.448 45.61,37.397 
	45.108,37.327 44.607,37.208 44.117,37.058 43.645,36.867 43.195,36.617 42.774,36.326 42.384,35.985 42.043,35.575 41.753,35.114 
	41.511,34.583 41.341,33.992 41.232,33.321 41.201,32.58 41.252,31.758 41.252,31.758 41.292,31.438 41.352,31.067 41.432,30.676 
	41.542,30.256 41.692,29.825 41.873,29.394 42.103,28.954 42.384,28.533 42.703,28.132 43.094,27.751 43.536,27.411 44.036,27.11 
	44.617,26.86 45.269,26.679 45.99,26.56 46.8,26.52 46.8,26.52 47.191,26.529 47.603,26.57 48.013,26.639 48.424,26.739 
	48.825,26.889 49.216,27.07 49.576,27.311 49.906,27.592 50.207,27.932 50.457,28.333 50.658,28.793 50.797,29.325 50.878,29.925 
	50.888,30.606 50.819,31.368 50.667,32.209 50.618,32.819 43.315,32.819 43.775,30.847 48.164,30.847 48.164,30.847 48.184,30.597 
	48.173,30.356 48.153,30.135 48.113,29.936 48.043,29.745 47.974,29.575 47.874,29.425 47.772,29.284 47.653,29.164 47.522,29.064 
	47.372,28.974 47.222,28.894 47.062,28.833 46.901,28.793 46.731,28.764 46.55,28.744 46.55,28.744 46.361,28.753 46.18,28.783 
	46.009,28.823 45.84,28.883 45.669,28.963 45.519,29.054 45.369,29.164 45.239,29.284 45.108,29.425 44.988,29.575 44.878,29.734 
	44.788,29.905 44.697,30.086 44.628,30.287 44.567,30.486 44.527,30.696 44.126,32.771 "/>
<polygon fill-rule="evenodd" clip-rule="evenodd" fill="#FFFFFF" points="68.018,27.331 67.888,27.26 67.758,27.201 67.617,27.13 
	67.468,27.06 67.317,27 67.146,26.94 66.976,26.88 66.796,26.82 66.605,26.77 66.415,26.729 66.205,26.69 65.994,26.659 
	65.764,26.639 65.533,26.619 65.293,26.619 65.043,26.619 64.793,26.619 64.532,26.639 64.262,26.67 63.981,26.72 63.7,26.8 
	63.42,26.911 63.14,27.05 62.858,27.231 62.589,27.451 62.328,27.711 62.078,28.032 61.837,28.402 61.617,28.843 61.406,29.344 
	61.216,29.905 61.056,30.546 60.996,30.907 60.955,31.258 60.936,31.607 60.945,31.949 60.977,32.289 61.046,32.609 61.136,32.91 
	61.246,33.212 61.396,33.481 61.576,33.742 61.786,33.973 62.027,34.183 62.299,34.362 62.608,34.513 62.949,34.644 63.329,34.733 
	63.46,34.764 63.61,34.793 63.791,34.813 63.99,34.833 64.211,34.854 64.441,34.854 64.692,34.854 64.943,34.833 65.202,34.803 
	65.463,34.754 65.713,34.685 65.965,34.604 66.215,34.493 66.445,34.362 66.655,34.203 66.855,34.021 66.405,36.697 66.345,36.746 
	66.285,36.808 66.205,36.878 66.115,36.938 66.005,37.018 65.863,37.088 65.704,37.157 65.524,37.217 65.293,37.287 65.032,37.338 
	64.732,37.378 64.382,37.418 63.99,37.438 63.541,37.448 63.029,37.438 62.468,37.408 62.007,37.358 61.547,37.258 61.087,37.107 
	60.625,36.907 60.185,36.668 59.764,36.366 59.362,36.016 58.993,35.615 58.662,35.164 58.381,34.663 58.141,34.103 57.961,33.491 
	57.841,32.819 57.8,32.109 57.819,31.328 57.93,30.497 58.01,30.086 58.101,29.685 58.201,29.294 58.301,28.923 58.411,28.573 
	58.541,28.222 58.672,27.891 58.812,27.581 58.962,27.271 59.112,26.98 59.283,26.699 59.463,26.439 59.644,26.188 59.843,25.948 
	60.044,25.728 60.254,25.518 60.484,25.317 60.716,25.127 60.955,24.957 61.206,24.795 61.477,24.646 61.746,24.516 62.027,24.395 
	62.318,24.285 62.629,24.185 62.938,24.105 63.259,24.035 63.601,23.975 63.941,23.924 64.302,23.884 64.662,23.864 65.043,23.854 
	65.363,23.864 65.673,23.884 65.974,23.915 66.274,23.955 66.556,23.995 66.825,24.055 67.086,24.105 67.327,24.165 67.557,24.225 
	67.758,24.285 67.948,24.346 68.108,24.406 68.248,24.456 68.368,24.496 68.459,24.536 68.519,24.556 68.018,27.331 68.018,27.331 
	"/>
<polyline fill="none" stroke="#FFFFFF" stroke-width="0.1146" stroke-miterlimit="2.6131" points="68.018,27.331 68.018,27.331 
	67.888,27.26 67.758,27.201 67.617,27.13 67.468,27.06 67.317,27 67.146,26.94 66.976,26.88 66.796,26.82 66.605,26.77 
	66.415,26.729 66.205,26.69 65.994,26.659 65.764,26.639 65.533,26.619 65.293,26.619 65.043,26.619 65.043,26.619 64.793,26.619 
	64.532,26.639 64.262,26.67 63.981,26.72 63.7,26.8 63.42,26.911 63.14,27.05 62.858,27.231 62.589,27.451 62.328,27.711 
	62.078,28.032 61.837,28.402 61.617,28.843 61.406,29.344 61.216,29.905 61.056,30.546 61.056,30.546 60.996,30.907 60.955,31.258 
	60.936,31.607 60.945,31.949 60.977,32.289 61.046,32.609 61.136,32.91 61.246,33.212 61.396,33.481 61.576,33.742 61.786,33.973 
	62.027,34.183 62.299,34.362 62.608,34.513 62.949,34.644 63.329,34.733 63.329,34.733 63.46,34.764 63.61,34.793 63.791,34.813 
	63.99,34.833 64.211,34.854 64.441,34.854 64.692,34.854 64.943,34.833 65.202,34.803 65.463,34.754 65.713,34.685 65.965,34.604 
	66.215,34.493 66.445,34.362 66.655,34.203 66.855,34.021 66.405,36.697 66.405,36.697 66.345,36.746 66.285,36.808 66.205,36.878 
	66.115,36.938 66.005,37.018 65.863,37.088 65.704,37.157 65.524,37.217 65.293,37.287 65.032,37.338 64.732,37.378 64.382,37.418 
	63.99,37.438 63.541,37.448 63.029,37.438 62.468,37.408 62.468,37.408 62.007,37.358 61.547,37.258 61.087,37.107 60.625,36.907 
	60.185,36.668 59.764,36.366 59.362,36.016 58.993,35.615 58.662,35.164 58.381,34.663 58.141,34.103 57.961,33.491 57.841,32.819 
	57.8,32.109 57.819,31.328 57.93,30.497 57.93,30.497 58.01,30.086 58.101,29.685 58.201,29.294 58.301,28.923 58.411,28.573 
	58.541,28.222 58.672,27.891 58.812,27.581 58.962,27.271 59.112,26.98 59.283,26.699 59.463,26.439 59.644,26.188 59.843,25.948 
	60.044,25.728 60.254,25.518 60.484,25.317 60.716,25.127 60.955,24.957 61.206,24.795 61.477,24.646 61.746,24.516 62.027,24.395 
	62.318,24.285 62.629,24.185 62.938,24.105 63.259,24.035 63.601,23.975 63.941,23.924 64.302,23.884 64.662,23.864 65.043,23.854 
	65.043,23.854 65.363,23.864 65.673,23.884 65.974,23.915 66.274,23.955 66.556,23.995 66.825,24.055 67.086,24.105 67.327,24.165 
	67.557,24.225 67.758,24.285 67.948,24.346 68.108,24.406 68.248,24.456 68.368,24.496 68.459,24.536 68.519,24.556 68.018,27.331 
	"/>
<polygon fill-rule="evenodd" clip-rule="evenodd" fill="#FFFFFF" points="92.681,37.458 89.905,37.458 90.106,36.347 90.106,36.246 
	89.945,36.447 89.775,36.626 89.605,36.787 89.426,36.927 89.244,37.058 89.064,37.168 88.884,37.258 88.693,37.349 88.504,37.418 
	88.313,37.469 88.123,37.519 87.922,37.548 87.722,37.579 87.531,37.599 87.332,37.608 87.131,37.608 86.61,37.568 86.129,37.458 
	85.688,37.287 85.288,37.058 84.927,36.768 84.607,36.427 84.325,36.056 84.086,35.636 83.885,35.185 83.726,34.714 83.615,34.223 
	83.534,33.712 83.505,33.201 83.516,32.68 83.564,32.169 83.655,31.658 83.806,31.067 83.986,30.506 84.196,29.995 84.446,29.515 
	84.707,29.064 85.008,28.664 85.317,28.303 85.649,27.972 85.999,27.681 86.37,27.431 86.75,27.211 87.131,27.04 87.531,26.9 
	87.932,26.81 88.333,26.75 88.744,26.729 89.034,26.739 89.315,26.77 89.576,26.82 89.815,26.889 90.047,26.97 90.246,27.06 
	90.447,27.17 90.627,27.28 90.787,27.4 90.938,27.53 91.067,27.662 91.188,27.791 91.288,27.921 91.378,28.052 91.458,28.172 
	91.52,28.292 91.52,28.292 92.22,24.355 94.944,24.355 92.681,37.458 92.681,37.458 "/>
<polyline fill="none" stroke="#FFFFFF" stroke-width="0.1146" stroke-miterlimit="2.6131" points="92.681,37.458 89.905,37.458 
	90.106,36.347 90.106,36.246 90.106,36.246 89.945,36.447 89.775,36.626 89.605,36.787 89.426,36.927 89.244,37.058 89.064,37.168 
	88.884,37.258 88.693,37.349 88.504,37.418 88.313,37.469 88.123,37.519 87.922,37.548 87.722,37.579 87.531,37.599 87.332,37.608 
	87.131,37.608 87.131,37.608 86.61,37.568 86.129,37.458 85.688,37.287 85.288,37.058 84.927,36.768 84.607,36.427 84.325,36.056 
	84.086,35.636 83.885,35.185 83.726,34.714 83.615,34.223 83.534,33.712 83.505,33.201 83.516,32.68 83.564,32.169 83.655,31.658 
	83.655,31.658 83.806,31.067 83.986,30.506 84.196,29.995 84.446,29.515 84.707,29.064 85.008,28.664 85.317,28.303 85.649,27.972 
	85.999,27.681 86.37,27.431 86.75,27.211 87.131,27.04 87.531,26.9 87.932,26.81 88.333,26.75 88.744,26.729 88.744,26.729 
	89.034,26.739 89.315,26.77 89.576,26.82 89.815,26.889 90.047,26.97 90.246,27.06 90.447,27.17 90.627,27.28 90.787,27.4 
	90.938,27.53 91.067,27.662 91.188,27.791 91.288,27.921 91.378,28.052 91.458,28.172 91.52,28.292 91.52,28.292 92.22,24.355 
	94.944,24.355 92.681,37.458 "/>
<polygon fill-rule="evenodd" clip-rule="evenodd" fill="#FBB231" points="88.144,35.034 88.424,35.014 88.684,34.954 88.924,34.884 
	89.154,34.773 89.364,34.653 89.565,34.503 89.756,34.333 89.926,34.152 90.076,33.952 90.217,33.731 90.346,33.502 90.456,33.261 
	90.557,33.011 90.638,32.75 90.707,32.48 90.757,32.209 90.808,31.928 90.838,31.638 90.838,31.368 90.827,31.087 90.798,30.827 
	90.757,30.577 90.688,30.336 90.606,30.105 90.507,29.905 90.387,29.715 90.257,29.554 90.106,29.414 89.937,29.294 89.756,29.214 
	89.565,29.164 89.354,29.144 89.084,29.164 88.834,29.204 88.604,29.284 88.373,29.385 88.173,29.515 87.973,29.675 87.803,29.845 
	87.632,30.035 87.482,30.256 87.341,30.486 87.211,30.727 87.101,30.986 87.001,31.258 86.921,31.527 86.841,31.817 86.781,32.109 
	86.73,32.55 86.75,33.031 86.821,33.521 86.951,33.992 87.15,34.402 87.411,34.733 87.743,34.954 88.144,35.034 88.144,35.034 "/>
<polygon fill-rule="evenodd" clip-rule="evenodd" fill="#FFFFFF" points="26.626,35.233 26.226,37.458 23.701,37.458 23.771,37.047 
	23.821,36.677 23.861,36.396 23.902,36.246 23.761,36.407 23.602,36.566 23.411,36.717 23.201,36.856 22.96,36.997 22.709,37.117 
	22.449,37.238 22.178,37.338 21.888,37.429 21.598,37.499 21.307,37.559 21.006,37.599 20.716,37.619 20.425,37.628 20.146,37.599 
	19.874,37.559 19.524,37.469 19.204,37.368 18.923,37.238 18.673,37.088 18.452,36.927 18.251,36.746 18.092,36.558 17.951,36.356 
	17.831,36.146 17.731,35.926 17.65,35.705 17.59,35.485 17.55,35.255 17.521,35.023 17.501,34.803 17.501,34.583 17.53,34.192 
	17.59,33.822 17.691,33.471 17.82,33.131 17.981,32.81 18.162,32.52 18.372,32.239 18.613,31.989 18.863,31.758 19.144,31.548 
	19.434,31.357 19.734,31.198 20.055,31.057 20.385,30.946 20.726,30.857 21.077,30.797 21.097,30.797 21.147,30.787 21.218,30.776 
	21.327,30.767 21.446,30.747 21.587,30.736 21.738,30.716 21.908,30.696 22.078,30.676 22.249,30.656 22.429,30.647 22.589,30.626 
	22.75,30.617 22.9,30.606 23.04,30.597 23.15,30.597 23.38,30.597 23.621,30.606 23.841,30.617 24.062,30.617 24.243,30.626 
	24.382,30.636 24.482,30.647 24.513,30.647 24.533,30.577 24.592,30.396 24.643,30.186 24.663,29.995 24.623,29.774 24.533,29.575 
	24.413,29.394 24.252,29.244 24.062,29.113 23.852,29.024 23.611,28.963 23.35,28.943 23.07,28.934 22.77,28.923 22.459,28.923 
	22.138,28.934 21.808,28.954 21.488,28.983 21.167,29.014 20.856,29.054 20.555,29.093 20.265,29.144 20.004,29.193 19.765,29.244 
	19.544,29.305 19.363,29.364 19.224,29.434 19.113,29.494 19.825,27.081 20.044,26.99 20.265,26.911 20.506,26.84 20.746,26.79 
	20.986,26.739 21.247,26.699 21.508,26.659 21.778,26.639 22.058,26.619 22.348,26.61 22.649,26.599 22.96,26.599 23.281,26.599 
	23.611,26.599 23.962,26.61 24.312,26.619 24.592,26.639 24.893,26.69 25.204,26.76 25.525,26.85 25.835,26.97 26.135,27.11 
	26.436,27.28 26.717,27.471 26.967,27.691 27.188,27.932 27.387,28.202 27.538,28.503 27.639,28.823 27.698,29.164 27.698,29.544 
	27.639,29.945 26.626,35.233 26.626,35.233 "/>
<polyline fill="none" stroke="#FFFFFF" stroke-width="0.1146" stroke-miterlimit="2.6131" points="26.626,35.233 26.226,37.458 
	23.701,37.458 23.701,37.458 23.771,37.047 23.821,36.677 23.861,36.396 23.902,36.246 23.902,36.246 23.761,36.407 23.602,36.566 
	23.411,36.717 23.201,36.856 22.96,36.997 22.709,37.117 22.449,37.238 22.178,37.338 21.888,37.429 21.598,37.499 21.307,37.559 
	21.006,37.599 20.716,37.619 20.425,37.628 20.146,37.599 19.874,37.559 19.874,37.559 19.524,37.469 19.204,37.368 18.923,37.238 
	18.673,37.088 18.452,36.927 18.251,36.746 18.092,36.558 17.951,36.356 17.831,36.146 17.731,35.926 17.65,35.705 17.59,35.485 
	17.55,35.255 17.521,35.023 17.501,34.803 17.501,34.583 17.501,34.583 17.53,34.192 17.59,33.822 17.691,33.471 17.82,33.131 
	17.981,32.81 18.162,32.52 18.372,32.239 18.613,31.989 18.863,31.758 19.144,31.548 19.434,31.357 19.734,31.198 20.055,31.057 
	20.385,30.946 20.726,30.857 21.077,30.797 21.077,30.797 21.097,30.797 21.147,30.787 21.218,30.776 21.327,30.767 21.446,30.747 
	21.587,30.736 21.738,30.716 21.908,30.696 22.078,30.676 22.249,30.656 22.429,30.647 22.589,30.626 22.75,30.617 22.9,30.606 
	23.04,30.597 23.15,30.597 23.15,30.597 23.38,30.597 23.621,30.606 23.841,30.617 24.062,30.617 24.243,30.626 24.382,30.636 
	24.482,30.647 24.513,30.647 24.513,30.647 24.533,30.577 24.592,30.396 24.643,30.186 24.663,29.995 24.663,29.995 24.623,29.774 
	24.533,29.575 24.413,29.394 24.252,29.244 24.062,29.113 23.852,29.024 23.611,28.963 23.35,28.943 23.35,28.943 23.07,28.934 
	22.77,28.923 22.459,28.923 22.138,28.934 21.808,28.954 21.488,28.983 21.167,29.014 20.856,29.054 20.555,29.093 20.265,29.144 
	20.004,29.193 19.765,29.244 19.544,29.305 19.363,29.364 19.224,29.434 19.113,29.494 19.825,27.081 19.825,27.081 20.044,26.99 
	20.265,26.911 20.506,26.84 20.746,26.79 20.986,26.739 21.247,26.699 21.508,26.659 21.778,26.639 22.058,26.619 22.348,26.61 
	22.649,26.599 22.96,26.599 23.281,26.599 23.611,26.599 23.962,26.61 24.312,26.619 24.312,26.619 24.592,26.639 24.893,26.69 
	25.204,26.76 25.525,26.85 25.835,26.97 26.135,27.11 26.436,27.28 26.717,27.471 26.967,27.691 27.188,27.932 27.387,28.202 
	27.538,28.503 27.639,28.823 27.698,29.164 27.698,29.544 27.639,29.945 26.626,35.233 "/>
<polygon fill-rule="evenodd" clip-rule="evenodd" fill="#EC1C2E" points="24.212,32.62 24.201,32.569 24.162,32.52 24.102,32.489 
	24.002,32.47 23.892,32.449 23.761,32.439 23.611,32.439 23.46,32.439 23.301,32.449 23.13,32.47 22.97,32.489 22.81,32.51 
	22.66,32.529 22.519,32.56 22.399,32.591 22.289,32.62 22.218,32.64 22.138,32.67 22.028,32.71 21.918,32.76 21.788,32.819 
	21.658,32.89 21.517,32.96 21.387,33.04 21.247,33.142 21.117,33.241 20.997,33.36 20.886,33.481 20.787,33.611 20.716,33.752 
	20.656,33.911 20.625,34.072 20.616,34.413 20.666,34.685 20.767,34.884 20.896,35.034 21.046,35.134 21.218,35.193 21.377,35.225 
	21.537,35.233 21.837,35.225 22.109,35.193 22.37,35.154 22.6,35.094 22.799,35.023 22.99,34.935 23.16,34.844 23.31,34.733 
	23.44,34.634 23.562,34.513 23.661,34.402 23.741,34.282 23.812,34.163 23.872,34.042 23.922,33.933 23.951,33.822 24.032,33.532 
	24.102,33.201 24.162,32.881 24.212,32.62 24.212,32.62 "/>
<polygon fill-rule="evenodd" clip-rule="evenodd" fill="#FFFFFF" points="5.549,37.458 2.825,37.458 5.098,24.306 9.836,24.306 
	10.288,32.109 13.563,24.306 18.512,24.306 16.188,37.458 13.464,37.458 15.187,27.631 15.076,27.631 10.999,37.458 7.923,37.458 
	7.904,37.047 7.833,35.955 7.744,34.402 7.643,32.62 7.543,30.827 7.453,29.254 7.383,28.112 7.363,27.631 7.333,27.631 
	7.273,27.631 7.213,27.631 7.213,27.631 5.549,37.458 5.549,37.458 "/>
<polyline fill="none" stroke="#FFFFFF" stroke-width="0.1146" stroke-miterlimit="2.6131" points="5.549,37.458 2.825,37.458 
	5.098,24.306 9.836,24.306 10.288,32.109 13.563,24.306 18.512,24.306 16.188,37.458 13.464,37.458 15.187,27.631 15.076,27.631 
	10.999,37.458 7.923,37.458 7.923,37.458 7.904,37.047 7.833,35.955 7.744,34.402 7.643,32.62 7.543,30.827 7.453,29.254 
	7.383,28.112 7.363,27.631 7.363,27.631 7.333,27.631 7.273,27.631 7.213,27.631 7.213,27.631 5.549,37.458 "/>
<polygon fill-rule="evenodd" clip-rule="evenodd" fill="#FFFFFF" points="76.343,35.233 75.932,37.458 73.418,37.458 73.438,37.047 
	73.447,36.687 73.447,36.416 73.467,36.297 73.338,36.447 73.188,36.597 73.007,36.737 72.806,36.878 72.596,37.007 72.354,37.128 
	72.104,37.248 71.854,37.349 71.583,37.429 71.304,37.509 71.023,37.559 70.742,37.599 70.452,37.619 70.172,37.628 69.9,37.599 
	69.631,37.559 69.271,37.469 68.949,37.368 68.669,37.238 68.408,37.088 68.188,36.927 67.998,36.746 67.838,36.558 67.698,36.356 
	67.577,36.146 67.487,35.926 67.406,35.705 67.357,35.485 67.317,35.255 67.287,35.023 67.267,34.803 67.267,34.583 67.287,34.192 
	67.347,33.822 67.438,33.471 67.567,33.131 67.718,32.81 67.908,32.52 68.118,32.239 68.349,31.989 68.609,31.758 68.879,31.548 
	69.169,31.357 69.48,31.198 69.792,31.057 70.121,30.946 70.452,30.857 70.793,30.797 70.813,30.797 70.862,30.787 70.933,30.776 
	71.033,30.767 71.163,30.747 71.304,30.736 71.454,30.716 71.614,30.696 71.785,30.676 71.965,30.656 72.136,30.647 72.306,30.626 
	72.466,30.617 72.606,30.606 72.746,30.597 72.856,30.597 73.097,30.597 73.338,30.606 73.566,30.617 73.787,30.617 73.979,30.626 
	74.139,30.636 74.229,30.647 74.269,30.647 74.289,30.577 74.318,30.396 74.349,30.186 74.369,29.995 74.329,29.774 74.249,29.575 
	74.119,29.394 73.969,29.244 73.787,29.113 73.577,29.024 73.356,28.963 73.117,28.943 72.836,28.934 72.536,28.923 72.225,28.923 
	71.904,28.934 71.574,28.954 71.254,28.983 70.933,29.014 70.623,29.054 70.322,29.093 70.031,29.144 69.771,29.193 69.531,29.244 
	69.311,29.305 69.129,29.364 68.989,29.434 68.879,29.494 69.581,27.081 69.801,26.99 70.031,26.911 70.261,26.84 70.502,26.79 
	70.752,26.739 71.003,26.699 71.263,26.659 71.534,26.639 71.814,26.619 72.104,26.61 72.396,26.599 72.706,26.599 73.016,26.599 
	73.338,26.599 73.677,26.61 74.019,26.619 74.299,26.639 74.599,26.69 74.91,26.76 75.23,26.85 75.541,26.97 75.852,27.11 
	76.151,27.28 76.434,27.471 76.684,27.691 76.913,27.932 77.114,28.202 77.264,28.503 77.374,28.823 77.444,29.164 77.444,29.544 
	77.394,29.945 76.343,35.233 76.343,35.233 "/>
<polygon fill-rule="evenodd" clip-rule="evenodd" fill="#FFFFFF" points="75.932,37.528 75.991,37.469 76.402,35.244 76.283,35.225 
	75.872,37.448 75.932,37.389 75.932,37.528 75.981,37.519 75.991,37.469 75.932,37.528 75.932,37.528 "/>
<polygon fill-rule="evenodd" clip-rule="evenodd" fill="#FFFFFF" points="73.356,37.458 73.418,37.528 75.932,37.528 75.932,37.389 
	73.418,37.389 73.478,37.458 73.356,37.458 73.348,37.528 73.418,37.528 73.356,37.458 73.356,37.458 "/>
<polygon fill-rule="evenodd" clip-rule="evenodd" fill="#FFFFFF" points="73.518,36.336 73.427,36.257 73.387,36.416 73.377,36.687 
	73.377,37.047 73.356,37.458 73.478,37.458 73.497,37.047 73.518,36.687 73.507,36.416 73.507,36.336 73.418,36.257 73.518,36.336 
	73.518,36.336 "/>
<polygon fill-rule="evenodd" clip-rule="evenodd" fill="#FFFFFF" points="69.621,37.619 69.621,37.619 69.9,37.658 70.172,37.688 
	70.452,37.679 70.742,37.658 71.033,37.619 71.313,37.568 71.594,37.488 71.875,37.408 72.125,37.308 72.386,37.188 72.626,37.068 
	72.836,36.927 73.047,36.787 73.228,36.646 73.387,36.486 73.518,36.336 73.418,36.257 73.287,36.407 73.146,36.547 72.967,36.687 
	72.776,36.827 72.566,36.947 72.325,37.068 72.085,37.188 71.835,37.287 71.574,37.368 71.293,37.448 71.013,37.499 70.742,37.538 
	70.452,37.559 70.172,37.568 69.9,37.538 69.642,37.499 69.642,37.499 69.621,37.619 69.621,37.619 "/>
<polygon fill-rule="evenodd" clip-rule="evenodd" fill="#FFFFFF" points="67.196,34.583 67.196,34.583 67.207,34.803 67.227,35.023 
	67.256,35.265 67.296,35.494 67.347,35.715 67.427,35.945 67.517,36.176 67.647,36.386 67.788,36.597 67.948,36.787 68.148,36.978 
	68.379,37.139 68.64,37.298 68.93,37.429 69.261,37.528 69.621,37.619 69.642,37.499 69.279,37.408 68.97,37.308 68.699,37.177 
	68.438,37.037 68.228,36.878 68.048,36.707 67.888,36.516 67.747,36.326 67.638,36.115 67.548,35.905 67.468,35.695 67.417,35.475 
	67.377,35.244 67.347,35.023 67.327,34.803 67.336,34.583 67.336,34.583 67.196,34.583 67.196,34.583 "/>
<polygon fill-rule="evenodd" clip-rule="evenodd" fill="#FFFFFF" points="70.793,30.736 70.793,30.736 70.442,30.797 70.102,30.887 
	69.771,30.997 69.45,31.137 69.14,31.298 68.839,31.497 68.569,31.709 68.309,31.949 68.067,32.199 67.857,32.48 67.656,32.78 
	67.507,33.11 67.377,33.451 67.287,33.812 67.227,34.192 67.196,34.583 67.336,34.583 67.347,34.192 67.406,33.832 67.497,33.491 
	67.627,33.15 67.777,32.841 67.957,32.56 68.168,32.279 68.389,32.029 68.649,31.809 68.919,31.599 69.199,31.417 69.511,31.258 
	69.811,31.118 70.142,31.008 70.462,30.917 70.793,30.857 70.793,30.857 70.793,30.736 70.793,30.736 "/>
<polygon fill-rule="evenodd" clip-rule="evenodd" fill="#FFFFFF" points="72.856,30.526 72.856,30.526 72.746,30.526 72.606,30.546 
	72.466,30.557 72.306,30.566 72.136,30.586 71.965,30.597 71.785,30.617 71.614,30.636 71.454,30.656 71.304,30.676 71.163,30.687 
	71.033,30.707 70.933,30.716 70.854,30.727 70.813,30.736 70.793,30.736 70.793,30.857 70.813,30.857 70.873,30.847 70.933,30.837 
	71.033,30.827 71.163,30.807 71.304,30.797 71.454,30.776 71.614,30.756 71.785,30.736 71.965,30.716 72.136,30.707 72.306,30.687 
	72.466,30.676 72.606,30.666 72.746,30.666 72.856,30.666 72.856,30.666 72.856,30.526 72.856,30.526 "/>
<polygon fill-rule="evenodd" clip-rule="evenodd" fill="#FFFFFF" points="74.208,30.636 74.269,30.586 74.229,30.586 74.139,30.577 
	73.979,30.566 73.787,30.546 73.566,30.546 73.338,30.546 73.097,30.526 72.856,30.526 72.856,30.666 73.097,30.666 73.338,30.666 
	73.566,30.687 73.787,30.687 73.979,30.687 74.139,30.696 74.229,30.707 74.269,30.707 74.329,30.656 74.269,30.707 74.318,30.716 
	74.329,30.656 74.208,30.636 74.208,30.636 "/>
<polygon fill-rule="evenodd" clip-rule="evenodd" fill="#FFFFFF" points="74.309,29.995 74.299,29.995 74.289,30.186 74.259,30.386 
	74.229,30.566 74.208,30.636 74.329,30.656 74.349,30.586 74.38,30.406 74.409,30.186 74.439,29.995 74.429,29.995 74.309,29.995 
	74.309,29.995 "/>
<polygon fill-rule="evenodd" clip-rule="evenodd" fill="#FFFFFF" points="73.117,29.003 73.117,29.014 73.348,29.024 73.558,29.084 
	73.758,29.174 73.929,29.294 74.068,29.434 74.189,29.605 74.269,29.785 74.309,29.995 74.429,29.995 74.389,29.765 74.309,29.544 
	74.168,29.354 74.009,29.193 73.818,29.054 73.598,28.963 73.367,28.903 73.117,28.874 73.117,28.883 73.117,29.003 73.117,29.003 
	"/>
<polygon fill-rule="evenodd" clip-rule="evenodd" fill="#FFFFFF" points="68.819,29.484 68.919,29.544 69.019,29.494 69.15,29.425 
	69.32,29.364 69.54,29.305 69.781,29.254 70.042,29.204 70.332,29.153 70.623,29.113 70.933,29.074 71.254,29.043 71.574,29.014 
	71.904,28.994 72.225,28.994 72.536,28.994 72.836,28.994 73.117,29.003 73.117,28.883 72.836,28.874 72.536,28.854 72.225,28.854 
	71.904,28.874 71.574,28.894 71.254,28.923 70.933,28.954 70.623,28.994 70.312,29.034 70.021,29.084 69.761,29.133 69.521,29.184 
	69.301,29.244 69.109,29.305 68.959,29.374 68.839,29.444 68.94,29.504 68.819,29.484 68.819,29.484 "/>
<polygon fill-rule="evenodd" clip-rule="evenodd" fill="#FFFFFF" points="69.561,27.02 69.521,27.07 68.819,29.484 68.94,29.504 
	69.642,27.09 69.601,27.141 69.561,27.02 69.531,27.03 69.521,27.07 69.561,27.02 69.561,27.02 "/>
<polygon fill-rule="evenodd" clip-rule="evenodd" fill="#FFFFFF" points="74.019,26.56 74.019,26.56 73.677,26.54 73.338,26.529 
	73.016,26.529 72.706,26.529 72.396,26.529 72.104,26.55 71.814,26.56 71.534,26.579 71.263,26.599 70.993,26.639 70.742,26.679 
	70.492,26.729 70.252,26.78 70.011,26.85 69.781,26.931 69.561,27.02 69.601,27.141 69.821,27.05 70.051,26.97 70.271,26.9 
	70.513,26.85 70.763,26.8 71.013,26.76 71.263,26.72 71.534,26.699 71.814,26.679 72.104,26.67 72.396,26.67 72.706,26.67 
	73.016,26.67 73.338,26.67 73.677,26.679 74.019,26.679 74.019,26.679 74.019,26.56 74.019,26.56 "/>
<polygon fill-rule="evenodd" clip-rule="evenodd" fill="#FFFFFF" points="77.454,29.956 77.454,29.956 77.504,29.544 77.504,29.164 
	77.435,28.814 77.324,28.483 77.164,28.172 76.963,27.891 76.724,27.641 76.472,27.421 76.182,27.231 75.881,27.05 75.561,26.911 
	75.25,26.79 74.92,26.699 74.609,26.63 74.299,26.579 74.019,26.56 74.019,26.679 74.299,26.699 74.59,26.75 74.899,26.82 
	75.211,26.911 75.521,27.03 75.821,27.17 76.122,27.331 76.393,27.521 76.644,27.742 76.863,27.972 77.063,28.233 77.203,28.523 
	77.313,28.833 77.385,29.164 77.385,29.544 77.334,29.936 77.334,29.936 77.454,29.956 77.454,29.956 "/>
<polygon fill-rule="evenodd" clip-rule="evenodd" fill="#FFFFFF" points="76.402,35.244 76.402,35.244 77.454,29.956 77.334,29.936 
	76.283,35.225 76.283,35.225 76.402,35.244 76.402,35.244 "/>
<polygon fill-rule="evenodd" clip-rule="evenodd" fill="#FBB231" points="73.918,32.62 73.898,32.56 73.858,32.51 73.787,32.48 
	73.688,32.449 73.577,32.439 73.447,32.43 73.297,32.43 73.146,32.439 72.986,32.459 72.826,32.48 72.666,32.499 72.516,32.52 
	72.365,32.55 72.235,32.569 72.104,32.6 72.005,32.62 71.935,32.631 71.854,32.66 71.755,32.69 71.645,32.73 71.515,32.79 
	71.394,32.85 71.254,32.921 71.123,33.011 70.993,33.102 70.862,33.212 70.752,33.321 70.642,33.451 70.553,33.591 70.482,33.742 
	70.422,33.902 70.392,34.072 70.382,34.413 70.432,34.685 70.513,34.884 70.632,35.034 70.782,35.134 70.953,35.193 71.123,35.225 
	71.293,35.233 71.594,35.225 71.875,35.193 72.136,35.145 72.365,35.074 72.586,34.994 72.776,34.903 72.956,34.803 73.117,34.685 
	73.257,34.572 73.377,34.442 73.487,34.322 73.577,34.192 73.647,34.072 73.698,33.952 73.737,33.832 73.768,33.722 73.808,33.44 
	73.858,33.15 73.898,32.87 73.918,32.62 73.918,32.62 "/>
<polygon fill-rule="evenodd" clip-rule="evenodd" fill="#FFFFFF" points="77.093,37.458 79.919,37.458 79.919,37.458 80.931,31.758 
	80.971,31.538 81.03,31.317 81.091,31.097 81.17,30.877 81.271,30.656 81.391,30.446 81.521,30.246 81.683,30.055 81.862,29.885 
	82.062,29.725 82.293,29.575 82.554,29.455 82.844,29.354 83.164,29.274 83.516,29.214 83.905,29.193 84.046,29.193 84.126,29.193 
	84.155,29.193 84.155,29.193 84.607,26.619 84.325,26.639 84.056,26.67 83.806,26.72 83.564,26.79 83.345,26.871 83.134,26.97 
	82.934,27.081 82.744,27.201 82.562,27.341 82.393,27.481 82.233,27.641 82.072,27.802 81.922,27.972 81.771,28.162 81.621,28.342 
	81.481,28.542 81.782,26.729 78.968,26.729 77.093,37.458 77.093,37.458 77.093,37.458 "/>
<polyline fill="none" stroke="#FFFFFF" stroke-width="0.1146" stroke-miterlimit="2.6131" points="77.093,37.458 79.919,37.458 
	79.919,37.458 80.931,31.758 80.931,31.758 80.971,31.538 81.03,31.317 81.091,31.097 81.17,30.877 81.271,30.656 81.391,30.446 
	81.521,30.246 81.683,30.055 81.862,29.885 82.062,29.725 82.293,29.575 82.554,29.455 82.844,29.354 83.164,29.274 83.516,29.214 
	83.905,29.193 83.905,29.193 84.046,29.193 84.126,29.193 84.155,29.193 84.155,29.193 84.607,26.619 84.607,26.619 84.325,26.639 
	84.056,26.67 83.806,26.72 83.564,26.79 83.345,26.871 83.134,26.97 82.934,27.081 82.744,27.201 82.562,27.341 82.393,27.481 
	82.233,27.641 82.072,27.802 81.922,27.972 81.771,28.162 81.621,28.342 81.481,28.542 81.782,26.729 78.968,26.729 77.093,37.458 
	77.093,37.458 "/>
<polygon fill-rule="evenodd" clip-rule="evenodd" fill="#FFFFFF" points="50.567,37.458 53.393,37.458 53.443,37.458 54.403,31.758 
	54.443,31.538 54.494,31.328 54.545,31.118 54.614,30.917 54.695,30.716 54.795,30.526 54.915,30.345 55.056,30.176 55.217,30.024 
	55.396,29.875 55.617,29.754 55.856,29.646 56.137,29.554 56.448,29.474 56.789,29.425 57.179,29.394 57.209,29.394 57.249,29.403 
	57.3,29.414 57.349,29.414 57.399,29.425 57.439,29.434 57.47,29.444 57.479,29.444 57.49,29.403 57.521,29.284 57.561,29.104 
	57.609,28.883 57.68,28.623 57.749,28.342 57.841,28.062 57.93,27.782 58.01,27.592 58.111,27.4 58.211,27.211 58.311,27.04 
	58.401,26.889 58.472,26.77 58.522,26.699 58.541,26.67 58.531,26.67 58.491,26.659 58.441,26.65 58.372,26.639 58.301,26.639 
	58.22,26.63 58.151,26.619 58.08,26.619 57.771,26.639 57.49,26.67 57.229,26.72 56.988,26.78 56.758,26.86 56.548,26.96 
	56.357,27.06 56.177,27.181 56.007,27.311 55.847,27.46 55.696,27.611 55.546,27.782 55.396,27.952 55.256,28.142 55.106,28.342 
	54.956,28.542 55.316,26.729 52.441,26.729 50.567,37.458 50.567,37.458 50.567,37.458 "/>
<polyline fill="none" stroke="#FFFFFF" stroke-width="0.1146" stroke-miterlimit="2.6131" points="50.567,37.458 53.393,37.458 
	53.443,37.458 54.403,31.758 54.403,31.758 54.443,31.538 54.494,31.328 54.545,31.118 54.614,30.917 54.695,30.716 54.795,30.526 
	54.915,30.345 55.056,30.176 55.217,30.024 55.396,29.875 55.617,29.754 55.856,29.646 56.137,29.554 56.448,29.474 56.789,29.425 
	57.179,29.394 57.179,29.394 57.209,29.394 57.249,29.403 57.3,29.414 57.349,29.414 57.399,29.425 57.439,29.434 57.47,29.444 
	57.479,29.444 57.479,29.444 57.49,29.403 57.521,29.284 57.561,29.104 57.609,28.883 57.68,28.623 57.749,28.342 57.841,28.062 
	57.93,27.782 57.93,27.782 58.01,27.592 58.111,27.4 58.211,27.211 58.311,27.04 58.401,26.889 58.472,26.77 58.522,26.699 
	58.541,26.67 58.541,26.67 58.531,26.67 58.491,26.659 58.441,26.65 58.372,26.639 58.301,26.639 58.22,26.63 58.151,26.619 
	58.08,26.619 58.08,26.619 57.771,26.639 57.49,26.67 57.229,26.72 56.988,26.78 56.758,26.86 56.548,26.96 56.357,27.06 
	56.177,27.181 56.007,27.311 55.847,27.46 55.696,27.611 55.546,27.782 55.396,27.952 55.256,28.142 55.106,28.342 54.956,28.542 
	55.316,26.729 52.441,26.729 50.567,37.458 50.567,37.458 "/>
<polygon fill-rule="evenodd" clip-rule="evenodd" fill="#FBB231" points="94.574,47.997 94.574,47.956 94.654,47.695 94.794,47.466 
	94.965,47.266 95.175,47.104 95.415,46.984 95.676,46.914 95.956,46.885 96.237,46.914 96.497,46.984 96.737,47.104 96.948,47.266 
	97.118,47.466 97.259,47.695 97.339,47.956 97.339,47.997 97.048,47.997 96.987,47.787 96.888,47.596 96.758,47.425 96.598,47.285 
	96.406,47.175 96.187,47.104 95.956,47.085 95.727,47.104 95.506,47.175 95.315,47.285 95.154,47.425 95.024,47.596 94.925,47.787 
	94.864,47.997 94.574,47.997 94.574,47.997 "/>
<polygon fill-rule="evenodd" clip-rule="evenodd" fill="#FBB231" points="95.455,47.997 95.455,47.646 96.006,47.646 96.127,47.646 
	96.237,47.666 96.317,47.686 96.387,47.726 96.438,47.776 96.477,47.836 96.497,47.906 96.508,47.997 96.307,47.997 96.307,47.946 
	96.297,47.896 96.277,47.856 96.247,47.836 96.216,47.816 96.167,47.806 96.116,47.796 96.066,47.796 96.006,47.796 95.705,47.796 
	95.705,47.997 95.455,47.997 95.455,47.997 "/>
<polygon fill-rule="evenodd" clip-rule="evenodd" fill="#FBB231" points="94.544,48.217 94.574,47.997 94.864,47.997 94.864,48.007 
	94.845,48.217 94.544,48.217 94.544,48.217 "/>
<polygon fill-rule="evenodd" clip-rule="evenodd" fill="#FBB231" points="95.455,48.217 95.455,47.997 95.705,47.997 95.705,48.196 
	95.956,48.196 96.046,48.177 96.116,48.166 96.177,48.147 96.227,48.126 96.267,48.097 96.287,48.066 96.307,48.017 96.307,47.997 
	96.508,47.997 96.508,47.997 96.497,48.066 96.477,48.126 96.447,48.177 96.406,48.217 95.455,48.217 95.455,48.217 "/>
<polygon fill-rule="evenodd" clip-rule="evenodd" fill="#FBB231" points="97.068,48.217 97.048,48.007 97.048,47.997 97.339,47.997 
	97.368,48.217 97.068,48.217 97.068,48.217 "/>
<polygon fill-rule="evenodd" clip-rule="evenodd" fill="#FBB231" points="94.544,48.217 94.544,48.247 94.574,48.537 94.654,48.809 
	94.794,49.048 94.965,49.258 95.175,49.429 95.415,49.55 95.676,49.629 95.956,49.66 96.237,49.629 96.497,49.55 96.737,49.429 
	96.948,49.258 97.118,49.048 97.259,48.809 97.339,48.537 97.368,48.247 97.368,48.217 97.068,48.217 97.068,48.247 97.048,48.486 
	96.987,48.707 96.888,48.897 96.758,49.068 96.598,49.209 96.406,49.318 96.187,49.389 95.956,49.408 95.727,49.389 95.506,49.318 
	95.315,49.209 95.154,49.068 95.024,48.897 94.925,48.707 94.864,48.486 94.845,48.247 94.845,48.217 94.544,48.217 94.544,48.217 
	"/>
<polygon fill-rule="evenodd" clip-rule="evenodd" fill="#FBB231" points="95.455,48.217 95.455,48.798 95.705,48.798 95.705,48.298 
	95.956,48.298 96.258,48.798 96.457,48.798 96.156,48.298 96.227,48.298 96.297,48.276 96.357,48.257 96.406,48.217 96.406,48.217 
	95.455,48.217 95.455,48.217 "/>
</svg>
