<?xml version="1.0" encoding="utf-8"?>
<!-- Generator: Adobe Illustrator 16.0.0, SVG Export Plug-In . SVG Version: 6.00 Build 0)  -->
<!DOCTYPE svg PUBLIC "-//W3C//DTD SVG 1.1//EN" "http://www.w3.org/Graphics/SVG/1.1/DTD/svg11.dtd">
<svg version="1.1" xmlns="http://www.w3.org/2000/svg" xmlns:xlink="http://www.w3.org/1999/xlink" x="0px" y="0px" width="99.08px"
	 height="60px" viewBox="0 0 99.08 60" enable-background="new 0 0 99.08 60" xml:space="preserve">
<g id="Capa_2">
	<rect y="0.057" fill-rule="evenodd" clip-rule="evenodd" fill="#FFFFFF" width="99.08" height="60"/>
</g>
<g id="Capa_1">
	<polygon fill="#005597" points="97.586,60 1.495,60 0,60 0,58.505 0,1.495 0,0 1.495,0 97.586,0 99.08,0 99.08,1.495 99.08,58.505 
		99.08,60 97.586,60 	"/>
	<polygon fill-rule="evenodd" clip-rule="evenodd" fill="#FFFFFF" points="97.586,58.505 1.495,58.505 1.495,1.495 97.586,1.495 
		97.586,58.505 	"/>
	<polygon fill-rule="evenodd" clip-rule="evenodd" fill="#005597" points="37.659,39.183 43.178,20.986 48.101,20.986 
		42.582,39.183 37.659,39.183 	"/>
	<path fill-rule="evenodd" clip-rule="evenodd" fill="#005597" d="M35.457,20.991l-4.43,7.713c-1.127,2.02-1.787,3.041-2.104,4.317
		h-0.067c0.079-1.617-0.147-3.604-0.168-4.728l-0.489-7.302H19.91l-0.085,0.49c2.129,0,3.392,1.069,3.74,3.258l1.615,14.444h5.102
		l10.315-18.191H35.457L35.457,20.991z"/>
	<path fill-rule="evenodd" clip-rule="evenodd" fill="#005597" d="M73.75,39.183l-0.136-2.706l-6.148-0.005l-1.258,2.711h-5.347
		l9.693-18.162h6.563l1.642,18.162H73.75L73.75,39.183z M73.186,28.449c-0.055-1.345-0.101-3.17-0.01-4.275h-0.072
		c-0.3,0.904-1.586,3.616-2.152,4.95l-1.833,3.988h4.317L73.186,28.449L73.186,28.449z"/>
	<path fill-rule="evenodd" clip-rule="evenodd" fill="#005597" d="M53.271,39.7c-3.476,0-5.783-1.104-7.43-2.086l2.345-3.582
		c1.479,0.827,2.64,1.781,5.312,1.781c0.858,0,1.686-0.224,2.156-1.038c0.685-1.184-0.157-1.82-2.081-2.909l-0.949-0.618
		c-2.853-1.948-4.086-3.798-2.744-7.029c0.859-2.066,3.125-3.633,6.863-3.633c2.576,0,4.993,1.115,6.4,2.205l-2.696,3.163
		c-1.374-1.112-2.513-1.673-3.816-1.673c-1.039,0-1.829,0.401-2.101,0.941c-0.514,1.016,0.165,1.709,1.664,2.639l1.13,0.719
		c3.461,2.184,4.287,4.473,3.419,6.613C59.249,38.878,56.328,39.7,53.271,39.7L53.271,39.7z"/>
	<path fill-rule="evenodd" clip-rule="evenodd" fill="#005597" d="M80.224,23.452h-0.213v-1.298h0.493
		c0.313,0,0.474,0.11,0.474,0.374c0,0.235-0.145,0.333-0.339,0.354l0.363,0.57h-0.241l-0.335-0.555h-0.202V23.452L80.224,23.452z
		 M80.463,22.715c0.16,0,0.301-0.016,0.301-0.204c0-0.157-0.153-0.175-0.282-0.175h-0.258v0.379H80.463L80.463,22.715z
		 M80.457,23.954c-0.675,0-1.154-0.504-1.154-1.172c0-0.706,0.533-1.173,1.154-1.173c0.614,0,1.146,0.467,1.146,1.173
		C81.604,23.486,81.071,23.954,80.457,23.954L80.457,23.954z M80.457,21.812c-0.509,0-0.903,0.398-0.903,0.969
		c0,0.533,0.345,0.969,0.903,0.969c0.501,0,0.896-0.395,0.896-0.969C81.354,22.21,80.958,21.812,80.457,21.812L80.457,21.812z"/>
	<polygon fill-rule="evenodd" clip-rule="evenodd" fill="#F8AB10" points="95.494,44.834 3.737,44.834 3.737,55.965 95.494,55.965 
		95.494,44.834 	"/>
	<polygon fill-rule="evenodd" clip-rule="evenodd" fill="#005597" points="95.345,4.185 3.587,4.185 3.587,15.419 95.345,15.419 
		95.345,4.185 	"/>
	<path fill-rule="evenodd" clip-rule="evenodd" fill="#005597" d="M87.839,54.856h-0.214v-1.299h0.492
		c0.314,0,0.474,0.11,0.474,0.372c0,0.236-0.144,0.334-0.338,0.355l0.363,0.571h-0.242l-0.335-0.556h-0.2V54.856L87.839,54.856z
		 M88.077,54.119c0.159,0,0.3-0.016,0.3-0.204c0-0.156-0.153-0.175-0.281-0.175h-0.257v0.379H88.077L88.077,54.119z M88.07,55.357
		c-0.674,0-1.154-0.505-1.154-1.173c0-0.706,0.533-1.174,1.154-1.174c0.614,0,1.147,0.468,1.147,1.174S88.685,55.357,88.07,55.357
		L88.07,55.357z M88.07,53.216c-0.508,0-0.903,0.397-0.903,0.969c0,0.532,0.345,0.969,0.903,0.969c0.502,0,0.896-0.395,0.896-0.969
		C88.967,53.613,88.572,53.216,88.07,53.216L88.07,53.216z"/>
</g>
<g id="Capa_3" display="none">
	<polygon display="inline" fill="#303030" points="97.586,60 1.495,60 0,60 0,58.505 0,1.495 0,0 1.495,0 97.586,0 99.08,0 
		99.08,1.495 99.08,58.505 99.08,60 97.586,60 	"/>
	<polygon display="inline" fill-rule="evenodd" clip-rule="evenodd" fill="#FFFFFF" points="97.586,58.505 1.495,58.505 
		1.495,1.495 97.586,1.495 97.586,58.505 	"/>
	<polygon display="inline" fill-rule="evenodd" clip-rule="evenodd" fill="#303030" points="37.659,39.183 43.178,20.986 
		48.101,20.986 42.582,39.183 37.659,39.183 	"/>
	<path display="inline" fill-rule="evenodd" clip-rule="evenodd" fill="#303030" d="M35.457,20.991l-4.43,7.713
		c-1.127,2.02-1.787,3.041-2.104,4.317h-0.067c0.079-1.617-0.147-3.604-0.168-4.728l-0.489-7.302H19.91l-0.085,0.49
		c2.129,0,3.392,1.069,3.74,3.258l1.615,14.444h5.102l10.315-18.191H35.457L35.457,20.991z"/>
	<path display="inline" fill-rule="evenodd" clip-rule="evenodd" fill="#303030" d="M73.75,39.183l-0.136-2.706l-6.148-0.005
		l-1.258,2.711h-5.347l9.693-18.162h6.563l1.642,18.162H73.75L73.75,39.183z M73.186,28.449c-0.055-1.345-0.101-3.17-0.01-4.275
		h-0.072c-0.3,0.904-1.586,3.616-2.152,4.95l-1.833,3.988h4.317L73.186,28.449L73.186,28.449z"/>
	<path display="inline" fill-rule="evenodd" clip-rule="evenodd" fill="#303030" d="M53.271,39.7c-3.476,0-5.783-1.104-7.43-2.086
		l2.345-3.582c1.479,0.827,2.64,1.781,5.312,1.781c0.858,0,1.686-0.224,2.156-1.038c0.685-1.184-0.157-1.82-2.081-2.909
		l-0.949-0.618c-2.853-1.948-4.086-3.798-2.744-7.029c0.859-2.066,3.125-3.633,6.863-3.633c2.576,0,4.993,1.115,6.4,2.205
		l-2.696,3.163c-1.374-1.112-2.513-1.673-3.816-1.673c-1.039,0-1.829,0.401-2.101,0.941c-0.514,1.016,0.165,1.709,1.664,2.639
		l1.13,0.719c3.461,2.184,4.287,4.473,3.419,6.613C59.249,38.878,56.328,39.7,53.271,39.7L53.271,39.7z"/>
	<path display="inline" fill-rule="evenodd" clip-rule="evenodd" fill="#303030" d="M80.224,23.452h-0.213v-1.298h0.493
		c0.313,0,0.474,0.11,0.474,0.374c0,0.235-0.145,0.333-0.339,0.354l0.363,0.57h-0.241l-0.335-0.555h-0.202V23.452L80.224,23.452z
		 M80.463,22.715c0.16,0,0.301-0.016,0.301-0.204c0-0.157-0.153-0.175-0.282-0.175h-0.258v0.379H80.463L80.463,22.715z
		 M80.457,23.954c-0.675,0-1.154-0.504-1.154-1.172c0-0.706,0.533-1.173,1.154-1.173c0.614,0,1.146,0.467,1.146,1.173
		C81.604,23.486,81.071,23.954,80.457,23.954L80.457,23.954z M80.457,21.812c-0.509,0-0.903,0.398-0.903,0.969
		c0,0.533,0.345,0.969,0.903,0.969c0.501,0,0.896-0.395,0.896-0.969C81.354,22.21,80.958,21.812,80.457,21.812L80.457,21.812z"/>
	<polygon display="inline" fill-rule="evenodd" clip-rule="evenodd" fill="#ABABAB" points="95.494,44.834 3.737,44.834 
		3.737,55.965 95.494,55.965 95.494,44.834 	"/>
	<polygon display="inline" fill-rule="evenodd" clip-rule="evenodd" fill="#303030" points="95.345,4.185 3.587,4.185 3.587,15.419 
		95.345,15.419 95.345,4.185 	"/>
	<path display="inline" fill-rule="evenodd" clip-rule="evenodd" fill="#303030" d="M87.839,54.856h-0.214v-1.299h0.492
		c0.314,0,0.474,0.11,0.474,0.372c0,0.236-0.144,0.334-0.338,0.355l0.363,0.571h-0.242l-0.335-0.556h-0.2V54.856L87.839,54.856z
		 M88.077,54.119c0.159,0,0.3-0.016,0.3-0.204c0-0.156-0.153-0.175-0.281-0.175h-0.257v0.379H88.077L88.077,54.119z M88.07,55.357
		c-0.674,0-1.154-0.505-1.154-1.173c0-0.706,0.533-1.174,1.154-1.174c0.614,0,1.147,0.468,1.147,1.174S88.685,55.357,88.07,55.357
		L88.07,55.357z M88.07,53.216c-0.508,0-0.903,0.397-0.903,0.969c0,0.532,0.345,0.969,0.903,0.969c0.502,0,0.896-0.395,0.896-0.969
		C88.967,53.613,88.572,53.216,88.07,53.216L88.07,53.216z"/>
</g>
</svg>
