<?xml version="1.0" encoding="utf-8"?>
<!-- Generator: Adobe Illustrator 16.0.0, SVG Export Plug-In . SVG Version: 6.00 Build 0)  -->
<!DOCTYPE svg PUBLIC "-//W3C//DTD SVG 1.1//EN" "http://www.w3.org/Graphics/SVG/1.1/DTD/svg11.dtd">
<svg version="1.1" id="Layer_1" xmlns="http://www.w3.org/2000/svg" xmlns:xlink="http://www.w3.org/1999/xlink" x="0px" y="0px"
	 width="186.601px" height="60px" viewBox="0 0 186.601 60" enable-background="new 0 0 186.601 60" xml:space="preserve">
<g>
	<g>
		<polygon fill="#0066B2" points="80.892,58.861 65.667,58.861 75.183,0.376 90.41,0.376 		"/>
		<path fill="#0066B2" d="M52.857,0.376L38.34,40.602l-1.717-8.662l0.001,0.003L31.5,5.644c0,0-0.619-5.267-7.223-5.267H0.281
			L0,1.366c0,0,7.341,1.527,15.926,6.688l13.229,50.808h15.864L69.245,0.376H52.857z"/>
		<path fill="#0066B2" d="M172.621,58.861h13.98L174.412,0.376h-12.242c-5.652,0-7.03,4.358-7.03,4.358l-22.705,54.126h15.869
			l3.175-8.687h19.356L172.621,58.861z M155.866,38.172l8-21.886l4.501,21.886H155.866z"/>
		<path fill="#0066B2" d="M133.623,14.44l2.174-12.561c0,0-6.705-2.55-13.695-2.55c-7.556,0-25.499,3.305-25.499,19.361
			c0,15.11,21.059,15.3,21.059,23.233c0,7.933-18.888,6.515-25.122,1.51l-2.265,13.13c0,0,6.799,3.304,17.188,3.304
			c10.389,0,26.065-5.382,26.065-20.022c0-15.205-21.249-16.621-21.249-23.232C112.279,10.001,127.108,10.851,133.623,14.44z"/>
	</g>
	<path fill="#F9A533" d="M36.624,31.942L31.5,5.644c0,0-0.619-5.267-7.223-5.267H0.281L0,1.366c0,0,11.534,2.391,22.6,11.347
		C33.175,21.272,36.624,31.942,36.624,31.942z"/>
</g>
</svg>
